<?xml version="1.0" standalone="no"?>
<!DOCTYPE svg PUBLIC "-//W3C//DTD SVG 20010904//EN"
 "http://www.w3.org/TR/2001/REC-SVG-20010904/DTD/svg10.dtd">
<svg version="1.0" xmlns="http://www.w3.org/2000/svg"
 width="1000.000000pt" height="1000.000000pt" viewBox="0 0 1000.000000 1000.000000"
 preserveAspectRatio="xMidYMid meet">
<metadata>
Created by potrace 1.14, written by Peter Selinger 2001-2017
</metadata>
<g transform="translate(0.000000,1000.000000) scale(0.100000,-0.100000)"
fill="#000000" stroke="none">
<path d="M4288 9924 c-2 -1 -48 -5 -103 -9 -119 -7 -255 -19 -350 -31 -16 -2
-55 -6 -85 -10 -30 -4 -64 -8 -75 -10 -11 -3 -42 -7 -70 -10 -62 -8 -74 -10
-105 -17 -14 -4 -47 -9 -74 -12 -27 -3 -53 -8 -57 -10 -4 -3 -26 -7 -49 -10
-24 -3 -46 -8 -50 -10 -4 -2 -22 -7 -41 -10 -19 -3 -61 -12 -94 -21 -33 -8
-70 -16 -82 -19 -49 -11 -196 -51 -233 -65 -14 -4 -59 -18 -100 -31 -41 -12
-81 -27 -89 -33 -8 -6 -17 -10 -20 -9 -3 2 -28 -5 -56 -14 -27 -9 -56 -18 -64
-19 -8 -2 -17 -8 -21 -14 -4 -7 -10 -11 -14 -10 -9 3 -179 -62 -186 -71 -3 -3
-16 -10 -30 -14 -33 -10 -261 -124 -328 -164 -29 -17 -55 -31 -58 -31 -6 0
-80 -47 -209 -133 -92 -61 -222 -160 -285 -215 -19 -17 -46 -40 -60 -52 -88
-75 -227 -222 -322 -340 -65 -81 -169 -230 -160 -230 4 0 2 -4 -3 -8 -15 -10
-98 -154 -98 -169 0 -7 -4 -13 -7 -13 -9 0 -36 -61 -32 -72 1 -5 -2 -8 -7 -8
-5 0 -20 -29 -33 -65 -12 -36 -27 -65 -31 -65 -4 0 -5 -5 -2 -10 4 -6 2 -16
-3 -23 -26 -31 -105 -339 -117 -452 -2 -22 -5 -40 -5 -40 -12 0 -33 -429 -22
-440 2 -2 5 -38 7 -80 4 -76 14 -155 20 -165 2 -3 6 -27 9 -55 4 -27 18 -93
32 -145 13 -52 26 -102 28 -110 3 -8 9 -28 15 -43 6 -16 9 -33 5 -38 -3 -5 -1
-9 4 -9 6 0 13 -12 16 -26 13 -51 127 -294 138 -294 4 0 7 -3 6 -7 -7 -22 160
-266 246 -362 79 -87 224 -226 294 -281 42 -33 82 -65 89 -70 14 -11 105 -66
113 -68 15 -3 47 -14 60 -21 15 -8 36 -13 110 -27 39 -8 172 -8 210 -1 131 25
228 75 315 163 81 82 84 86 109 139 49 105 60 159 60 285 0 96 -4 124 -28 195
-46 135 -134 245 -286 358 -41 30 -101 81 -132 114 -59 61 -132 153 -121 153
3 0 -1 8 -9 18 -17 19 -44 83 -40 95 1 4 -2 7 -6 7 -7 0 -15 30 -38 140 -11
54 -15 110 -16 235 -1 141 4 203 22 280 6 28 13 58 15 67 9 42 40 134 48 139
5 3 9 10 9 15 2 31 35 99 97 199 70 111 83 127 196 240 102 101 127 123 185
161 22 15 40 31 40 36 0 5 4 7 9 3 6 -3 13 1 18 8 7 12 38 31 148 94 51 30
247 125 260 127 6 1 17 6 25 11 8 5 22 11 31 12 8 1 28 9 44 17 16 8 32 13 37
10 4 -3 8 -1 8 4 0 5 6 9 13 9 6 0 55 15 107 33 92 31 108 35 159 46 14 3 28
7 31 9 7 4 176 44 215 51 20 3 51 9 95 20 14 3 44 7 67 9 23 2 46 5 50 8 4 3
33 8 63 11 30 4 68 9 85 13 16 3 47 7 70 9 22 2 58 6 80 9 37 4 97 9 255 21
36 2 116 6 178 8 62 2 116 6 119 10 3 3 14 1 24 -4 12 -7 20 -7 24 0 4 7 12 7
25 0 13 -7 21 -7 25 0 4 6 13 7 24 1 9 -5 22 -6 28 -3 13 8 81 7 90 -1 3 -3
16 -2 29 3 17 7 24 6 24 -2 0 -9 3 -9 12 0 7 7 17 8 29 2 12 -7 20 -6 24 0 4
6 11 7 17 3 7 -3 50 -7 97 -8 93 -3 277 -14 326 -20 17 -2 51 -5 78 -6 26 -2
47 -5 47 -8 0 -3 20 -6 45 -5 25 0 45 -2 45 -5 0 -3 17 -7 38 -7 40 -1 128
-12 152 -19 8 -2 31 -7 50 -10 19 -3 42 -8 50 -10 8 -2 35 -7 60 -10 24 -4 47
-8 51 -10 3 -2 39 -11 80 -20 41 -9 82 -18 92 -21 9 -2 25 -6 35 -8 26 -7 123
-33 160 -45 17 -5 32 -7 32 -3 0 4 4 2 8 -5 4 -6 19 -14 32 -16 14 -2 33 -7
43 -10 9 -4 25 -10 35 -14 9 -3 26 -8 37 -10 11 -2 24 -8 29 -13 6 -6 18 -10
28 -10 10 0 26 -4 36 -9 9 -5 28 -13 42 -19 163 -64 389 -169 402 -187 4 -5 8
-6 8 -1 0 5 8 2 18 -6 9 -8 37 -26 62 -39 45 -24 290 -179 313 -199 6 -6 39
-31 71 -56 313 -238 571 -526 788 -879 66 -106 180 -327 227 -440 18 -44 39
-94 47 -110 7 -17 26 -70 42 -118 17 -49 33 -91 36 -94 3 -4 6 -16 6 -28 0
-12 3 -25 8 -29 4 -4 8 -12 8 -17 1 -5 2 -10 4 -11 1 -2 3 -10 5 -18 2 -8 13
-51 25 -95 11 -44 23 -88 25 -98 2 -10 7 -28 11 -40 4 -12 8 -31 10 -42 1 -11
12 -60 22 -110 11 -49 23 -108 26 -130 6 -41 12 -76 21 -130 3 -16 7 -52 11
-80 3 -27 8 -63 10 -80 3 -16 7 -57 9 -90 2 -33 7 -87 11 -120 3 -33 8 -112
10 -175 1 -63 3 -115 4 -115 7 0 2 -116 -5 -119 -6 -3 -6 -5 1 -5 5 -1 9 -16
8 -33 -1 -18 -4 -108 -6 -200 -2 -93 -5 -168 -8 -168 -3 0 -5 -26 -6 -58 0
-31 -4 -86 -8 -122 -7 -61 -16 -149 -20 -195 -1 -11 -5 -26 -9 -32 -5 -7 -6
-16 -3 -21 2 -4 0 -30 -5 -57 -5 -28 -12 -66 -14 -85 -3 -19 -7 -46 -10 -60
-7 -34 -14 -69 -21 -105 -3 -16 -16 -77 -31 -135 -14 -58 -26 -109 -28 -115
-7 -33 -20 -77 -37 -130 -11 -33 -21 -64 -22 -70 -1 -5 -11 -35 -21 -65 -11
-30 -20 -57 -20 -60 -1 -3 -6 -16 -12 -30 -6 -14 -20 -51 -32 -83 -34 -93
-105 -245 -134 -289 -10 -16 -16 -28 -13 -28 3 0 -8 -22 -24 -49 -17 -26 -30
-52 -30 -56 0 -5 -11 -23 -25 -41 -14 -18 -25 -37 -25 -43 0 -6 -4 -11 -10
-11 -5 0 -10 -6 -10 -13 0 -8 -11 -27 -25 -43 -14 -16 -25 -35 -25 -41 0 -7
-4 -13 -8 -13 -5 0 -24 -23 -42 -52 -18 -28 -42 -58 -52 -67 -10 -8 -18 -19
-18 -22 0 -18 -215 -245 -279 -295 -24 -19 -40 -34 -36 -34 4 0 -23 -23 -61
-51 -38 -28 -72 -56 -76 -62 -4 -7 -8 -9 -8 -5 0 5 -20 -8 -45 -26 -24 -19
-54 -37 -65 -41 -11 -3 -20 -11 -20 -16 0 -5 -6 -9 -14 -9 -8 0 -21 -6 -28
-13 -7 -6 -33 -22 -58 -35 -25 -12 -52 -27 -60 -32 -18 -11 -131 -62 -145 -66
-5 -1 -32 -12 -59 -24 -57 -26 -284 -95 -341 -104 -22 -4 -56 -11 -75 -16 -19
-4 -55 -11 -80 -15 -25 -4 -58 -9 -75 -11 -16 -2 -61 -6 -100 -9 -38 -2 -70
-5 -70 -6 0 -4 -93 -8 -205 -8 -124 0 -285 5 -285 9 0 1 -20 3 -45 5 -85 7
-139 13 -157 19 -10 3 -36 7 -58 10 -22 3 -51 8 -65 11 -14 3 -37 7 -52 10
-15 2 -36 6 -47 10 -11 3 -29 8 -40 10 -78 18 -161 41 -241 69 -41 15 -82 28
-90 30 -35 9 -213 81 -251 101 -14 8 -29 12 -33 8 -3 -3 -6 -1 -6 5 0 7 -6 12
-14 12 -13 0 -270 128 -341 169 -83 49 -130 76 -135 76 -3 0 -23 12 -45 26
-80 52 -280 174 -290 178 -5 2 -12 7 -15 10 -8 9 -100 71 -106 71 -3 0 -25 14
-49 30 -31 21 -43 36 -40 49 2 11 7 41 11 68 3 26 8 57 11 68 8 40 17 111 17
142 1 18 3 33 7 33 3 0 5 10 6 23 1 12 4 42 7 67 3 25 8 72 11 105 3 33 8 76
10 95 2 19 7 67 10 105 3 39 8 97 11 130 3 33 7 92 9 130 2 39 4 70 5 70 1 0
3 34 4 75 2 41 7 149 11 240 4 91 8 239 9 330 0 97 5 168 11 172 7 5 7 8 0 8
-12 0 -12 81 0 100 6 9 4 11 -5 5 -10 -6 -10 -4 -2 10 5 11 6 30 2 46 -5 15
-5 43 0 63 4 19 4 36 -1 38 -4 2 -4 20 0 40 6 23 5 38 -1 38 -5 0 -5 6 0 17 5
9 6 29 2 44 -5 15 -5 43 0 63 4 19 4 36 -1 38 -4 2 -4 20 0 41 6 22 5 37 -1
37 -5 0 -5 6 0 17 5 9 6 29 2 44 -5 15 -5 44 0 63 4 20 5 36 1 36 -3 0 -6 14
-7 30 -1 17 2 30 5 30 7 0 5 76 -3 95 -2 7 -1 29 4 48 4 20 4 37 -1 39 -4 2
-4 20 0 41 6 22 5 37 -1 37 -5 0 -5 6 0 17 5 9 6 29 2 44 -5 15 -5 43 0 63 4
19 4 36 -1 38 -4 2 -4 20 0 41 6 22 5 37 -1 37 -5 0 -5 6 0 17 5 9 6 29 2 44
-5 15 -5 43 0 63 4 19 4 36 -1 38 -4 2 -4 20 0 41 6 22 5 37 -1 37 -5 0 -5 6
0 17 5 9 6 29 2 44 -5 15 -5 43 0 63 4 19 4 36 -1 38 -4 2 -4 20 0 41 6 22 5
37 -1 37 -5 0 -5 6 0 17 5 9 6 29 2 44 -5 15 -5 44 0 63 4 20 5 36 1 36 -3 0
-6 14 -7 30 -1 17 2 30 6 30 8 0 7 31 -2 45 -3 6 -4 19 -2 30 7 33 7 92 1 102
-3 5 -2 26 2 46 5 20 5 37 0 39 -4 2 -4 20 0 41 6 22 5 37 -1 37 -5 0 -5 6 0
17 5 9 6 29 2 44 -5 15 -5 43 0 63 4 19 4 36 -1 38 -4 2 -4 20 0 41 6 22 5 37
-1 37 -5 0 -5 6 0 17 5 9 6 29 2 44 -5 15 -5 43 0 63 4 19 4 36 -1 38 -4 2 -4
20 0 41 6 22 5 37 -1 37 -5 0 -5 6 0 17 5 9 6 29 2 44 -5 15 -5 44 0 63 4 20
5 36 1 36 -3 0 -6 14 -7 30 -1 17 2 30 6 30 4 0 6 10 4 23 -1 12 -3 22 -4 22
-1 0 -3 30 -5 66 -4 87 -39 219 -57 219 -4 0 -7 3 -7 8 3 17 -2 29 -19 48 -10
10 -18 23 -19 28 -1 17 -92 113 -135 141 -23 17 -45 32 -48 36 -13 14 -110 52
-177 69 -82 20 -208 20 -284 0 -24 -7 -48 -13 -54 -14 -5 -1 -43 -19 -83 -40
-67 -36 -156 -112 -207 -176 -30 -39 -76 -139 -96 -210 -17 -62 -18 -156 -19
-1830 -1 -971 -3 -1826 -5 -1900 -11 -379 -19 -574 -30 -725 -1 -22 -3 -50 -4
-62 -1 -22 -1 -22 -73 8 -40 16 -80 31 -88 32 -8 2 -21 6 -27 10 -7 5 -21 10
-31 12 -9 1 -37 9 -62 16 -25 7 -48 13 -52 15 -5 1 -9 2 -10 4 -4 2 -12 4
-133 30 -107 23 -115 25 -215 36 -36 4 -78 8 -95 10 -42 5 -362 5 -407 -1 -66
-7 -180 -24 -212 -31 -11 -3 -30 -7 -41 -9 -73 -13 -110 -24 -186 -51 -20 -7
-39 -10 -43 -7 -3 4 -6 1 -6 -5 0 -7 -7 -12 -16 -12 -8 0 -25 -5 -37 -12 -12
-7 -26 -12 -32 -13 -32 -2 -295 -155 -303 -176 -2 -5 -8 -9 -13 -9 -21 0 -204
-177 -254 -245 -17 -22 -33 -42 -36 -45 -12 -9 -90 -142 -121 -204 -16 -34
-45 -106 -63 -161 -32 -96 -38 -118 -51 -194 -3 -18 -8 -43 -11 -55 -10 -39
-11 -311 -1 -381 12 -94 43 -220 75 -308 33 -94 103 -237 114 -237 5 0 8 -3 7
-7 -2 -8 66 -112 101 -156 37 -46 189 -196 231 -228 25 -18 47 -36 50 -40 14
-16 290 -172 290 -163 0 2 19 -5 43 -15 50 -22 78 -33 92 -37 6 -1 44 -12 85
-24 41 -12 82 -24 90 -27 8 -3 19 -5 23 -4 5 1 42 -5 83 -14 117 -24 185 -29
389 -29 246 -1 322 7 524 55 68 16 129 33 135 37 6 5 31 15 56 22 25 7 50 17
56 22 6 4 14 5 17 1 4 -3 7 -1 7 5 0 7 6 12 14 12 18 0 156 69 174 87 7 7 18
13 24 13 5 0 60 38 122 84 151 114 333 308 422 451 10 17 24 36 31 43 7 7 13
20 13 28 0 8 5 14 10 14 6 0 10 6 10 14 0 8 3 16 8 18 4 2 15 20 24 41 19 40
29 44 50 24 7 -6 20 -13 28 -15 8 -2 26 -11 40 -20 14 -9 34 -22 46 -28 21
-11 107 -59 194 -106 25 -14 68 -38 95 -53 28 -15 55 -30 60 -33 6 -4 16 -7
23 -8 8 -2 21 -9 30 -17 16 -13 329 -169 462 -230 30 -13 78 -35 105 -48 28
-12 55 -24 60 -25 6 -1 66 -26 135 -54 127 -52 440 -163 440 -155 0 2 16 -3
35 -11 19 -8 38 -15 42 -15 5 -1 13 -3 18 -4 15 -5 68 -18 90 -22 28 -6 38 -9
55 -16 8 -3 29 -8 45 -10 17 -2 37 -6 45 -9 17 -7 171 -38 215 -43 17 -3 44
-6 60 -9 17 -2 55 -7 85 -11 30 -3 66 -8 80 -11 148 -26 653 -26 850 1 19 3
53 8 75 10 55 7 174 29 225 41 14 3 34 7 45 9 52 10 76 16 100 25 14 5 25 7
25 5 0 -3 17 1 38 9 20 8 75 26 122 41 47 14 94 30 105 35 11 4 52 20 90 35
130 51 451 215 466 237 3 5 10 10 15 11 9 0 135 79 158 98 6 5 54 41 106 80
52 39 102 78 110 85 8 7 40 35 70 61 83 72 310 301 310 314 0 5 5 7 10 4 6 -3
10 -2 10 3 0 10 41 61 88 109 12 13 22 27 22 31 0 4 13 21 28 39 47 54 55 65
127 168 92 131 175 261 175 274 0 6 4 11 9 11 5 0 14 15 22 33 7 17 16 34 19
37 4 3 30 50 60 105 29 55 56 105 60 110 5 6 9 13 9 17 1 4 24 56 52 115 45
96 137 311 143 338 2 6 8 21 13 35 53 131 197 602 208 682 2 15 6 36 10 47 7
24 15 58 29 134 22 111 36 188 40 217 3 19 8 46 10 60 5 23 22 146 32 229 2
20 6 61 9 91 3 30 7 71 10 90 13 94 20 302 20 575 -1 309 -9 478 -31 655 -3
25 -7 59 -9 75 -2 17 -6 50 -9 75 -6 41 -11 72 -21 150 -2 14 -6 39 -9 55 -9
44 -27 148 -29 165 -2 8 -5 20 -8 25 -4 6 -5 20 -4 33 1 12 -1 22 -5 22 -3 0
-6 8 -7 18 -3 23 -18 91 -38 172 -9 36 -18 72 -20 80 -10 41 -59 206 -87 290
-18 52 -33 97 -33 100 -1 3 -5 14 -9 25 -4 11 -12 34 -18 50 -6 17 -17 44 -24
62 -8 17 -14 33 -14 36 0 3 -5 18 -12 34 -6 15 -12 30 -13 33 -5 15 -21 52
-46 108 -16 35 -29 66 -29 68 0 12 -163 335 -172 340 -4 3 -6 10 -3 15 4 5 1
9 -4 9 -6 0 -11 7 -11 15 0 8 -4 15 -10 15 -5 0 -10 9 -10 20 0 11 -4 20 -10
20 -5 0 -10 4 -10 10 0 34 -318 499 -432 632 -13 15 -31 37 -41 50 -73 95
-326 353 -456 468 -41 36 -88 77 -105 92 -35 31 -139 113 -180 143 -16 11 -57
41 -92 68 -35 26 -66 47 -70 47 -3 0 -23 14 -44 30 -21 17 -43 30 -49 30 -6 0
-11 5 -11 10 0 6 -7 10 -15 10 -8 0 -15 5 -15 10 0 6 -5 10 -11 10 -6 0 -29
13 -52 28 -23 16 -62 40 -87 53 -25 13 -47 26 -50 29 -14 14 -326 173 -420
214 -137 60 -181 78 -190 80 -3 1 -9 4 -15 7 -5 4 -28 12 -50 19 -22 7 -45 17
-52 22 -7 5 -22 11 -35 13 -13 2 -97 28 -188 58 -167 56 -256 83 -297 92 -46
10 -59 13 -102 25 -25 6 -54 13 -65 15 -12 1 -29 6 -38 10 -9 4 -21 4 -27 1
-5 -3 -11 -2 -13 3 -1 5 -21 11 -43 14 -22 3 -51 8 -65 11 -66 15 -87 19 -115
22 -31 4 -70 11 -70 14 0 1 -20 3 -44 6 -25 2 -56 7 -70 10 -14 3 -46 7 -71
10 -25 2 -56 7 -70 9 -14 3 -52 7 -85 11 -33 3 -76 7 -95 9 -32 4 -152 14
-225 19 -17 1 -36 5 -43 9 -6 5 -12 4 -12 0 0 -5 -26 -6 -57 -2 -54 6 -730 9
-735 3z m-2684 -8166 c8 13 160 5 271 -15 22 -4 43 -6 48 -5 4 1 7 -3 7 -9 0
-5 5 -7 10 -4 6 4 19 3 28 -1 9 -4 26 -9 36 -11 19 -3 188 -58 216 -70 8 -3
21 -7 29 -9 7 -1 18 -7 24 -13 6 -6 18 -11 26 -11 9 0 23 -6 33 -13 15 -12 10
-20 -42 -79 -32 -37 -61 -64 -64 -61 -3 4 -6 1 -6 -6 0 -34 -210 -138 -335
-166 -46 -11 -335 -16 -335 -7 0 5 -10 8 -22 7 -48 -4 -172 47 -220 90 -32 28
-71 92 -63 105 3 5 1 11 -4 15 -6 3 -8 22 -5 43 14 118 115 194 289 218 22 3
42 7 44 10 2 2 10 -1 17 -7 7 -5 15 -6 18 -1z"/>
</g>
</svg>
